<svg width="128" height="128" viewBox="0 0 512 512" fill="none" xmlns="http://www.w3.org/2000/svg">
  <defs>
    <linearGradient id="bgGradient" x1="64" y1="44" x2="458" y2="474" gradientUnits="userSpaceOnUse">
      <stop stop-color="#0A202B"/>
      <stop offset="1" stop-color="#061019"/>
    </linearGradient>
    <linearGradient id="channelGradient" x1="256" y1="98" x2="256" y2="414" gradientUnits="userSpaceOnUse">
      <stop stop-color="#BCE9F0"/>
      <stop offset="1" stop-color="#56AFC0"/>
    </linearGradient>
    <linearGradient id="landGradient" x1="122" y1="132" x2="368" y2="398" gradientUnits="userSpaceOnUse">
      <stop stop-color="#D0A866"/>
      <stop offset="1" stop-color="#8A6030"/>
    </linearGradient>
  </defs>

  <rect x="18" y="18" width="476" height="476" rx="112" fill="url(#bgGradient)"/>
  <path d="M128 114C102 132 86 164 86 210V302C86 350 106 382 142 404C162 416 181 422 210 424L230 418C208 406 194 392 188 368C182 344 183 292 183 256C183 226 181 188 190 162C196 145 208 130 228 118C203 108 179 105 156 106C145 107 136 110 128 114Z" fill="url(#landGradient)"/>
  <path d="M384 114C410 132 426 164 426 210V302C426 350 406 382 370 404C350 416 331 422 302 424L282 418C304 406 318 392 324 368C330 344 329 292 329 256C329 226 331 188 322 162C316 145 304 130 284 118C309 108 333 105 356 106C367 107 376 110 384 114Z" fill="url(#landGradient)"/>
  <rect x="232" y="98" width="48" height="316" rx="24" fill="url(#channelGradient)"/>
  <circle cx="256" cy="168" r="18" fill="#F7E3B8" stroke="#08141C" stroke-width="10"/>
  <circle cx="256" cy="258" r="18" fill="#F7E3B8" stroke="#08141C" stroke-width="10"/>
  <circle cx="256" cy="348" r="18" fill="#F7E3B8" stroke="#08141C" stroke-width="10"/>
</svg>
