<svg width="256" height="256" viewBox="0 0 256 256" fill="none" xmlns="http://www.w3.org/2000/svg">
  <defs>
    <linearGradient id="bg" x1="36" y1="28" x2="214" y2="228" gradientUnits="userSpaceOnUse">
      <stop stop-color="#0D2433"/>
      <stop offset="1" stop-color="#04101A"/>
    </linearGradient>
  </defs>
  <rect x="12" y="12" width="232" height="232" rx="64" fill="url(#bg)"/>
  <circle cx="128" cy="132" r="64" stroke="#8AD7EA" stroke-opacity="0.25" stroke-width="2"/>
  <circle cx="128" cy="132" r="44" stroke="#8AD7EA" stroke-opacity="0.35" stroke-width="2"/>
  <path d="M84 164C100.667 171.333 116.667 175 132 175C154.667 175 175.333 168 194 154" stroke="#D88D69" stroke-width="6" stroke-linecap="round"/>
  <path d="M121 75C123.198 70.4052 128.721 68.4457 133.32 70.6458C137.918 72.8459 139.875 78.3726 137.677 82.9673L130.266 98.4576C137.952 103.476 145.539 111.744 151.278 122.384C160.421 139.341 162.749 157.487 156.478 163.456C150.207 169.424 137.713 161.06 128.57 144.103C122.831 133.463 120.13 123.083 120.602 114.198L103.661 120.468C98.7283 122.293 93.2496 119.774 91.4267 114.835C89.6038 109.896 92.1267 104.408 97.0596 102.584L121 93.7211V75Z" fill="#F4F8FA"/>
  <circle cx="132" cy="61" r="8" fill="#D88D69"/>
</svg>
